<svg width="780" height="380" viewBox="0 0 780 380" fill="none" xmlns="http://www.w3.org/2000/svg">
    <g clip-path="url(#clip0_201_47)">
        <path d="M90.5575 9.71494C124.486 58.1629 125.572 117.964 121.874 141.809" stroke="#9C896D" stroke-width="33"/>
        <path d="M345.125 204.402V149.174H380.409V247.356H346.914V228.691H345.892C343.761 234.956 340.032 239.856 334.706 243.393C329.379 246.887 323.051 248.635 315.721 248.635C308.86 248.635 302.852 247.058 297.696 243.904C292.582 240.751 288.598 236.404 285.743 230.865C282.93 225.325 281.502 218.975 281.46 211.816V149.174H316.744V204.402C316.787 209.26 318.022 213.073 320.451 215.843C322.923 218.613 326.375 219.998 330.806 219.998C333.747 219.998 336.282 219.38 338.413 218.144C340.586 216.866 342.248 215.076 343.399 212.775C344.592 210.431 345.167 207.64 345.125 204.402ZM488.099 181.134H455.627C455.457 179.132 454.754 177.406 453.518 175.957C452.282 174.508 450.684 173.4 448.724 172.633C446.806 171.823 444.675 171.419 442.332 171.419C439.306 171.419 436.707 171.973 434.533 173.081C432.36 174.188 431.295 175.765 431.337 177.811C431.295 179.26 431.913 180.602 433.191 181.838C434.512 183.073 437.048 184.032 440.798 184.714L460.741 188.294C470.798 190.126 478.276 193.215 483.177 197.562C488.12 201.866 490.613 207.64 490.656 214.885C490.613 221.873 488.525 227.946 484.391 233.102C480.3 238.215 474.697 242.179 467.58 244.991C460.506 247.761 452.431 249.146 443.354 249.146C428.354 249.146 416.614 246.078 408.134 239.941C399.697 233.805 394.988 225.708 394.008 215.652H429.036C429.505 218.762 431.039 221.17 433.638 222.875C436.281 224.536 439.604 225.367 443.61 225.367C446.849 225.367 449.512 224.813 451.6 223.706C453.731 222.598 454.817 221.021 454.86 218.975C454.817 217.1 453.88 215.609 452.048 214.501C450.258 213.393 447.445 212.498 443.61 211.816L426.224 208.748C416.209 207.001 408.709 203.677 403.724 198.777C398.738 193.876 396.266 187.569 396.309 179.856C396.266 173.038 398.056 167.264 401.678 162.534C405.343 157.761 410.563 154.139 417.339 151.667C424.157 149.153 432.232 147.896 441.565 147.896C455.755 147.896 466.941 150.836 475.123 156.717C483.347 162.598 487.673 170.737 488.099 181.134ZM535.879 224.089L536.135 182.157H540.737L564.516 149.174H604.146L564.26 200.566H554.288L535.879 224.089ZM504.175 247.356V116.447H539.459V247.356H504.175ZM564.771 247.356L542.271 208.492L565.283 183.436L605.169 247.356H564.771ZM656.337 249.146C645.854 249.146 636.82 247.143 629.235 243.137C621.692 239.089 615.876 233.294 611.785 225.751C607.736 218.166 605.712 209.089 605.712 198.521C605.712 188.379 607.758 179.515 611.849 171.93C615.94 164.345 621.714 158.443 629.171 154.224C636.629 150.005 645.428 147.896 655.57 147.896C662.985 147.896 669.697 149.046 675.705 151.348C681.714 153.649 686.849 156.994 691.11 161.383C695.371 165.73 698.653 171.014 700.954 177.235C703.255 183.457 704.406 190.467 704.406 198.265V206.447H616.707V187.015H671.934C671.891 184.203 671.167 181.731 669.761 179.6C668.397 177.427 666.543 175.744 664.2 174.551C661.898 173.315 659.278 172.697 656.337 172.697C653.482 172.697 650.861 173.315 648.475 174.551C646.089 175.744 644.171 177.406 642.722 179.536C641.316 181.667 640.57 184.16 640.485 187.015V207.981C640.485 211.135 641.146 213.947 642.467 216.419C643.788 218.89 645.684 220.829 648.156 222.235C650.627 223.642 653.61 224.345 657.104 224.345C659.533 224.345 661.749 224.004 663.752 223.322C665.798 222.64 667.545 221.66 668.994 220.382C670.442 219.061 671.508 217.484 672.19 215.652H704.406C703.298 222.47 700.677 228.393 696.543 233.421C692.41 238.407 686.934 242.285 680.116 245.055C673.34 247.782 665.414 249.146 656.337 249.146ZM777.355 149.174V174.742H712.667V149.174H777.355ZM725.196 125.652H760.48V215.779C760.48 217.143 760.714 218.294 761.183 219.231C761.652 220.126 762.376 220.808 763.356 221.277C764.336 221.703 765.593 221.916 767.127 221.916C768.193 221.916 769.429 221.788 770.835 221.532C772.284 221.277 773.349 221.063 774.031 220.893L779.145 245.694C777.568 246.163 775.309 246.738 772.369 247.42C769.471 248.102 766.02 248.549 762.014 248.762C753.917 249.188 747.12 248.358 741.623 246.269C736.126 244.139 731.993 240.794 729.223 236.234C726.453 231.674 725.11 225.964 725.196 219.103V125.652Z"
              fill="#61A840"/>
        <path d="M243.748 159.131C243.748 253.295 192.73 326.883 116.887 303.225C44.5398 326.622 0 253.295 0 159.131C0 64.9661 51.702 11.9643 116.887 74.0363C191.603 13.8742 243.748 64.9661 243.748 159.131Z"
              fill="#61A840"/>
        <path d="M70.1944 236.245V105.336H126.956C136.927 105.336 145.301 106.678 152.076 109.363C158.895 112.048 164.03 115.84 167.481 120.741C170.976 125.641 172.723 131.415 172.723 138.063C172.723 142.879 171.657 147.268 169.527 151.231C167.439 155.194 164.498 158.518 160.706 161.202C156.913 163.844 152.481 165.677 147.41 166.7V167.978C153.035 168.191 158.149 169.619 162.751 172.261C167.353 174.86 171.018 178.461 173.746 183.063C176.473 187.623 177.836 192.992 177.836 199.171C177.836 206.33 175.961 212.701 172.211 218.283C168.504 223.866 163.22 228.255 156.359 231.451C149.498 234.647 141.317 236.245 131.814 236.245H70.1944ZM105.734 207.864H122.353C128.319 207.864 132.794 206.756 135.777 204.54C138.76 202.282 140.251 198.958 140.251 194.569C140.251 191.501 139.548 188.901 138.142 186.771C136.736 184.64 134.733 183.021 132.133 181.913C129.577 180.805 126.487 180.251 122.865 180.251H105.734V207.864ZM105.734 158.262H120.308C123.419 158.262 126.167 157.772 128.554 156.792C130.94 155.812 132.794 154.406 134.115 152.573C135.478 150.698 136.16 148.418 136.16 145.734C136.16 141.685 134.711 138.596 131.814 136.465C128.916 134.292 125.251 133.205 120.819 133.205H105.734V158.262Z"
              fill="white"/>
    </g>
    <defs>
        <clipPath id="clip0_201_47">
            <rect width="780" height="379" fill="white" transform="translate(0 0.5)"/>
        </clipPath>
    </defs>
</svg>
