<svg width="780" height="309" viewBox="0 0 780 309" fill="none" xmlns="http://www.w3.org/2000/svg">
    <g clip-path="url(#clip0_201_41)">
        <path d="M90.5575 9.90588C124.486 58.3538 125.572 118.155 121.874 142" stroke="#9C896D" stroke-width="33"/>
        <path d="M345.125 204.593V149.365H380.409V247.547H346.914V228.882H345.892C343.761 235.146 340.032 240.047 334.706 243.584C329.379 247.078 323.051 248.825 315.721 248.825C308.86 248.825 302.852 247.249 297.696 244.095C292.582 240.942 288.598 236.595 285.743 231.056C282.93 225.516 281.503 219.166 281.46 212.007V149.365H316.744V204.593C316.787 209.45 318.022 213.264 320.451 216.034C322.923 218.804 326.375 220.189 330.807 220.189C333.747 220.189 336.282 219.571 338.413 218.335C340.586 217.057 342.248 215.267 343.399 212.966C344.592 210.622 345.167 207.831 345.125 204.593ZM488.099 181.325H455.627C455.457 179.323 454.754 177.597 453.518 176.148C452.282 174.699 450.684 173.591 448.724 172.824C446.806 172.014 444.675 171.61 442.332 171.61C439.306 171.61 436.707 172.164 434.533 173.271C432.36 174.379 431.295 175.956 431.337 178.002C431.295 179.45 431.913 180.793 433.191 182.029C434.512 183.264 437.048 184.223 440.798 184.905L460.741 188.485C470.798 190.317 478.276 193.406 483.177 197.753C488.12 202.057 490.613 207.831 490.656 215.075C490.613 222.064 488.525 228.137 484.391 233.293C480.3 238.406 474.697 242.37 467.58 245.182C460.506 247.952 452.431 249.337 443.354 249.337C428.354 249.337 416.614 246.269 408.134 240.132C399.697 233.996 394.988 225.899 394.008 215.843H429.036C429.505 218.953 431.039 221.361 433.639 223.066C436.281 224.727 439.604 225.558 443.61 225.558C446.849 225.558 449.512 225.004 451.6 223.896C453.731 222.789 454.818 221.212 454.86 219.166C454.818 217.291 453.88 215.8 452.048 214.692C450.258 213.584 447.445 212.689 443.61 212.007L426.224 208.939C416.21 207.192 408.71 203.868 403.724 198.968C398.738 194.067 396.266 187.76 396.309 180.047C396.266 173.229 398.056 167.455 401.678 162.725C405.343 157.952 410.563 154.33 417.339 151.858C424.157 149.344 432.232 148.087 441.565 148.087C455.755 148.087 466.941 151.027 475.123 156.908C483.347 162.789 487.673 170.928 488.099 181.325ZM535.879 224.28L536.135 182.348H540.737L564.516 149.365H604.146L564.26 200.757H554.288L535.879 224.28ZM504.175 247.547V116.638H539.459V247.547H504.175ZM564.771 247.547L542.271 208.683L565.283 183.627L605.169 247.547H564.771ZM656.337 249.337C645.854 249.337 636.82 247.334 629.235 243.328C621.693 239.28 615.876 233.485 611.785 225.942C607.737 218.357 605.712 209.28 605.712 198.712C605.712 188.57 607.758 179.706 611.849 172.121C615.94 164.536 621.714 158.634 629.171 154.415C636.629 150.196 645.428 148.087 655.57 148.087C662.985 148.087 669.697 149.237 675.705 151.539C681.714 153.84 686.849 157.185 691.11 161.574C695.371 165.921 698.653 171.205 700.954 177.426C703.255 183.648 704.406 190.658 704.406 198.456V206.638H616.707V187.206H671.934C671.891 184.394 671.167 181.922 669.761 179.791C668.397 177.618 666.543 175.935 664.2 174.742C661.898 173.506 659.278 172.888 656.337 172.888C653.482 172.888 650.862 173.506 648.475 174.742C646.089 175.935 644.171 177.597 642.722 179.727C641.316 181.858 640.57 184.351 640.485 187.206V208.172C640.485 211.325 641.146 214.138 642.467 216.61C643.788 219.081 645.684 221.02 648.156 222.426C650.627 223.833 653.61 224.536 657.104 224.536C659.533 224.536 661.749 224.195 663.752 223.513C665.798 222.831 667.545 221.851 668.994 220.573C670.443 219.252 671.508 217.675 672.19 215.843H704.406C703.298 222.661 700.677 228.584 696.543 233.612C692.41 238.598 686.934 242.476 680.116 245.246C673.34 247.973 665.414 249.337 656.337 249.337ZM777.355 149.365V174.933H712.667V149.365H777.355ZM725.196 125.843H760.48V215.97C760.48 217.334 760.714 218.485 761.183 219.422C761.652 220.317 762.376 220.999 763.356 221.468C764.336 221.894 765.593 222.107 767.128 222.107C768.193 222.107 769.429 221.979 770.835 221.723C772.284 221.468 773.349 221.254 774.031 221.084L779.145 245.885C777.568 246.354 775.309 246.929 772.369 247.611C769.471 248.293 766.02 248.74 762.014 248.953C753.917 249.379 747.12 248.548 741.623 246.46C736.126 244.33 731.993 240.985 729.223 236.425C726.453 231.865 725.11 226.155 725.196 219.294V125.843Z"
              fill="#61A840"/>
        <path d="M243.748 159.322C243.748 253.486 192.73 327.074 116.887 303.416C44.5398 326.813 0 253.486 0 159.322C0 65.1571 51.702 12.1552 116.887 74.2273C191.603 14.0651 243.748 65.1571 243.748 159.322Z"
              fill="#61A840"/>
        <path d="M70.1944 236.436V105.527H126.956C136.927 105.527 145.301 106.869 152.076 109.554C158.895 112.238 164.03 116.031 167.481 120.932C170.976 125.832 172.723 131.606 172.723 138.254C172.723 143.069 171.657 147.459 169.527 151.422C167.439 155.385 164.498 158.709 160.706 161.393C156.913 164.035 152.481 165.868 147.41 166.89V168.169C153.035 168.382 158.149 169.81 162.751 172.452C167.353 175.051 171.018 178.652 173.746 183.254C176.473 187.814 177.836 193.183 177.836 199.362C177.836 206.521 175.961 212.892 172.211 218.474C168.504 224.057 163.22 228.446 156.359 231.642C149.498 234.838 141.317 236.436 131.814 236.436H70.1944ZM105.734 208.055H122.353C128.319 208.055 132.794 206.947 135.777 204.731C138.76 202.473 140.251 199.149 140.251 194.76C140.251 191.692 139.548 189.092 138.142 186.962C136.736 184.831 134.733 183.212 132.133 182.104C129.577 180.996 126.487 180.442 122.865 180.442H105.734V208.055ZM105.734 158.453H120.308C123.419 158.453 126.167 157.963 128.554 156.983C130.94 156.003 132.794 154.596 134.115 152.764C135.478 150.889 136.16 148.609 136.16 145.925C136.16 141.876 134.711 138.787 131.814 136.656C128.916 134.483 125.251 133.396 120.819 133.396H105.734V158.453Z"
              fill="white"/>
    </g>
    <defs>
        <clipPath id="clip0_201_41">
            <rect width="780" height="308" fill="white" transform="translate(0 0.5)"/>
        </clipPath>
    </defs>
</svg>
