<svg width="308" height="309" viewBox="0 0 308 309" fill="none" xmlns="http://www.w3.org/2000/svg">
    <g clip-path="url(#clip0_202_68)">
        <path d="M122.684 10.524C156.612 58.9719 157.698 118.773 154 142.618" stroke="#9C896D" stroke-width="33"/>
        <path d="M275.874 159.94C275.874 254.104 224.855 327.692 149.013 304.034C76.6658 327.431 32.126 254.104 32.126 159.94C32.126 65.7752 83.828 12.7733 149.013 74.8454C223.729 14.6832 275.874 65.7752 275.874 159.94Z"
              fill="#61A840"/>
        <path d="M102.32 237.054V106.145H159.082C169.053 106.145 177.427 107.487 184.202 110.172C191.021 112.857 196.156 116.649 199.607 121.55C203.102 126.45 204.849 132.224 204.849 138.872C204.849 143.688 203.783 148.077 201.653 152.04C199.565 156.003 196.624 159.327 192.832 162.011C189.039 164.653 184.607 166.486 179.536 167.509V168.787C185.161 169 190.275 170.428 194.877 173.07C199.479 175.669 203.144 179.27 205.872 183.872C208.599 188.432 209.962 193.801 209.962 199.98C209.962 207.139 208.087 213.51 204.337 219.092C200.63 224.675 195.346 229.064 188.485 232.26C181.624 235.456 173.443 237.054 163.94 237.054H102.32ZM137.86 208.673H154.479C160.445 208.673 164.92 207.565 167.903 205.349C170.886 203.091 172.377 199.767 172.377 195.378C172.377 192.31 171.674 189.71 170.268 187.58C168.862 185.449 166.859 183.83 164.259 182.722C161.702 181.614 158.613 181.06 154.991 181.06H137.86V208.673ZM137.86 159.071H152.434C155.545 159.071 158.293 158.581 160.68 157.601C163.066 156.621 164.92 155.215 166.241 153.382C167.604 151.507 168.286 149.227 168.286 146.543C168.286 142.494 166.837 139.405 163.94 137.274C161.042 135.101 157.377 134.014 152.945 134.014H137.86V159.071Z"
              fill="white"/>
    </g>
    <defs>
        <clipPath id="clip0_202_68">
            <rect width="308" height="308" fill="white" transform="translate(0 0.5)"/>
        </clipPath>
    </defs>
</svg>
