<svg width="244" height="309" viewBox="0 0 244 309" fill="none" xmlns="http://www.w3.org/2000/svg">
    <g clip-path="url(#clip0_201_53)">
        <path d="M90.8096 9.69651C124.738 58.1444 125.824 117.946 122.126 141.791" stroke="#9C896D" stroke-width="33"/>
        <path d="M244 159.112C244 253.277 192.981 326.865 117.139 303.207C44.7918 326.603 0.251953 253.277 0.251953 159.112C0.251953 64.9477 51.9539 11.9458 117.139 74.0179C191.855 13.8557 244 64.9477 244 159.112Z"
              fill="#61A840"/>
        <path d="M70.4464 236.227V105.317H127.208C137.179 105.317 145.553 106.66 152.328 109.344C159.147 112.029 164.282 115.822 167.733 120.722C171.228 125.623 172.975 131.397 172.975 138.045C172.975 142.86 171.909 147.249 169.779 151.212C167.691 155.175 164.75 158.499 160.958 161.184C157.165 163.826 152.733 165.658 147.662 166.681V167.96C153.287 168.173 158.401 169.6 163.003 172.242C167.605 174.842 171.27 178.442 173.997 183.045C176.725 187.604 178.088 192.974 178.088 199.153C178.088 206.312 176.213 212.683 172.463 218.265C168.756 223.847 163.472 228.237 156.611 231.433C149.75 234.629 141.569 236.227 132.066 236.227H70.4464ZM105.986 207.846H122.605C128.571 207.846 133.046 206.738 136.029 204.522C139.012 202.264 140.503 198.94 140.503 194.55C140.503 191.482 139.8 188.883 138.394 186.752C136.988 184.621 134.985 183.002 132.385 181.894C129.828 180.786 126.739 180.232 123.117 180.232H105.986V207.846ZM105.986 158.244H120.56C123.671 158.244 126.419 157.754 128.806 156.773C131.192 155.793 133.046 154.387 134.367 152.555C135.73 150.68 136.412 148.4 136.412 145.715C136.412 141.667 134.963 138.577 132.066 136.447C129.168 134.273 125.503 133.187 121.071 133.187H105.986V158.244Z"
              fill="white"/>
    </g>
    <defs>
        <clipPath id="clip0_201_53">
            <rect width="244" height="308" fill="white" transform="translate(0 0.5)"/>
        </clipPath>
    </defs>
</svg>
